<svg xmlns="http://www.w3.org/2000/svg" xmlns:xlink="http://www.w3.org/1999/xlink" width="354" zoomAndPan="magnify" viewBox="0 0 265.5 353.999987" height="472" preserveAspectRatio="xMidYMid meet" version="1.0"><defs><g/><clipPath id="id1"><path d="M 0 0.332031 L 265 0.332031 L 265 353.667969 L 0 353.667969 Z M 0 0.332031 " clip-rule="nonzero"/></clipPath></defs><g clip-path="url(#id1)"><path fill="#ffffff" d="M 0 0.332031 L 265.5 0.332031 L 265.5 361.082031 L 0 361.082031 Z M 0 0.332031 " fill-opacity="1" fill-rule="nonzero"/><path fill="#ffffff" d="M 0 0.332031 L 265.5 0.332031 L 265.5 354.332031 L 0 354.332031 Z M 0 0.332031 " fill-opacity="1" fill-rule="nonzero"/><path fill="#333333" d="M 0 0.332031 L 265.5 0.332031 L 265.5 354.332031 L 0 354.332031 Z M 0 0.332031 " fill-opacity="1" fill-rule="nonzero"/></g><path fill="#ffffff" d="M 36.953125 14.238281 L 228.546875 14.238281 C 232.867188 14.238281 237.011719 15.957031 240.066406 19.011719 C 243.125 22.066406 244.839844 26.210938 244.839844 30.53125 L 244.839844 323.785156 C 244.839844 328.109375 243.125 332.25 240.066406 335.308594 C 237.011719 338.363281 232.867188 340.078125 228.546875 340.078125 L 36.953125 340.078125 C 27.953125 340.078125 20.660156 332.785156 20.660156 323.785156 L 20.660156 30.53125 C 20.660156 21.535156 27.953125 14.238281 36.953125 14.238281 " fill-opacity="0.702" fill-rule="nonzero"/><g fill="#282828" fill-opacity="1"><g transform="translate(83.999993, 252.158863)"><g><path d="M 27.8125 -48.65625 L 27.8125 -56.765625 C 27.8125 -62.921875 29.066406 -68.117188 31.578125 -72.359375 C 34.097656 -76.609375 38.566406 -80.742188 44.984375 -84.765625 C 50.066406 -87.972656 53.722656 -90.863281 55.953125 -93.4375 C 58.191406 -96.019531 59.3125 -98.976562 59.3125 -102.3125 C 59.3125 -104.945312 58.113281 -107.035156 55.71875 -108.578125 C 53.332031 -110.117188 50.222656 -110.890625 46.390625 -110.890625 C 36.898438 -110.890625 25.804688 -107.523438 13.109375 -100.796875 L 0 -126.4375 C 15.65625 -135.363281 32 -139.828125 49.03125 -139.828125 C 63.050781 -139.828125 74.050781 -136.75 82.03125 -130.59375 C 90.019531 -124.4375 94.015625 -116.046875 94.015625 -105.421875 C 94.015625 -97.816406 92.238281 -91.226562 88.6875 -85.65625 C 85.132812 -80.09375 79.457031 -74.832031 71.65625 -69.875 C 65.0625 -65.59375 60.929688 -62.460938 59.265625 -60.484375 C 57.597656 -58.503906 56.765625 -56.164062 56.765625 -53.46875 L 56.765625 -48.65625 Z M 23.765625 -15.65625 C 23.765625 -21.4375 25.441406 -25.894531 28.796875 -29.03125 C 32.160156 -32.175781 37.113281 -33.75 43.65625 -33.75 C 49.945312 -33.75 54.769531 -32.160156 58.125 -28.984375 C 61.488281 -25.816406 63.171875 -21.375 63.171875 -15.65625 C 63.171875 -9.9375 61.425781 -5.503906 57.9375 -2.359375 C 54.445312 0.785156 49.6875 2.359375 43.65625 2.359375 C 37.4375 2.359375 32.566406 0.800781 29.046875 -2.3125 C 25.523438 -5.425781 23.765625 -9.875 23.765625 -15.65625 Z M 23.765625 -15.65625 "/></g></g></g><g fill="#333333" fill-opacity="1"><g transform="translate(42.457034, 314.118859)"><g><path d="M 25.34375 -4.765625 L 2.0625 -15.03125 L 2.0625 -18.375 L 25.34375 -30 L 25.34375 -24.375 L 9.3125 -16.953125 L 25.34375 -10.359375 Z M 25.34375 -4.765625 "/></g></g><g transform="translate(69.902345, 314.118859)"><g/></g><g transform="translate(82.371095, 314.118859)"><g><path d="M 14.390625 0.46875 C 11.796875 0.46875 9.582031 -0.00390625 7.75 -0.953125 C 5.925781 -1.898438 4.535156 -3.363281 3.578125 -5.34375 C 2.628906 -7.332031 2.15625 -9.875 2.15625 -12.96875 C 2.15625 -16.164062 2.695312 -18.773438 3.78125 -20.796875 C 4.875 -22.828125 6.382812 -24.316406 8.3125 -25.265625 C 10.238281 -26.222656 12.476562 -26.703125 15.03125 -26.703125 C 16.84375 -26.703125 18.40625 -26.523438 19.71875 -26.171875 C 21.039062 -25.816406 22.195312 -25.398438 23.1875 -24.921875 L 21.078125 -19.390625 C 19.953125 -19.835938 18.90625 -20.207031 17.9375 -20.5 C 16.96875 -20.789062 16 -20.9375 15.03125 -20.9375 C 13.78125 -20.9375 12.738281 -20.640625 11.90625 -20.046875 C 11.082031 -19.460938 10.46875 -18.582031 10.0625 -17.40625 C 9.65625 -16.238281 9.453125 -14.773438 9.453125 -13.015625 C 9.453125 -11.273438 9.671875 -9.832031 10.109375 -8.6875 C 10.546875 -7.550781 11.175781 -6.707031 12 -6.15625 C 12.832031 -5.601562 13.84375 -5.328125 15.03125 -5.328125 C 16.507812 -5.328125 17.828125 -5.523438 18.984375 -5.921875 C 20.140625 -6.316406 21.265625 -6.875 22.359375 -7.59375 L 22.359375 -1.484375 C 21.265625 -0.796875 20.117188 -0.300781 18.921875 0 C 17.734375 0.3125 16.222656 0.46875 14.390625 0.46875 Z M 14.390625 0.46875 "/></g></g><g transform="translate(107.050781, 314.118859)"><g><path d="M 14.484375 -26.75 C 18.003906 -26.75 20.703125 -25.984375 22.578125 -24.453125 C 24.453125 -22.921875 25.390625 -20.59375 25.390625 -17.46875 L 25.390625 0 L 20.390625 0 L 19.015625 -3.5625 L 18.828125 -3.5625 C 18.078125 -2.625 17.3125 -1.859375 16.53125 -1.265625 C 15.75 -0.671875 14.847656 -0.234375 13.828125 0.046875 C 12.816406 0.328125 11.582031 0.46875 10.125 0.46875 C 8.582031 0.46875 7.195312 0.171875 5.96875 -0.421875 C 4.738281 -1.015625 3.769531 -1.925781 3.0625 -3.15625 C 2.363281 -4.382812 2.015625 -5.941406 2.015625 -7.828125 C 2.015625 -10.609375 2.988281 -12.660156 4.9375 -13.984375 C 6.894531 -15.304688 9.828125 -16.035156 13.734375 -16.171875 L 18.28125 -16.3125 L 18.28125 -17.46875 C 18.28125 -18.84375 17.921875 -19.847656 17.203125 -20.484375 C 16.484375 -21.128906 15.484375 -21.453125 14.203125 -21.453125 C 12.941406 -21.453125 11.703125 -21.269531 10.484375 -20.90625 C 9.265625 -20.550781 8.046875 -20.097656 6.828125 -19.546875 L 4.453125 -24.375 C 5.847656 -25.113281 7.40625 -25.691406 9.125 -26.109375 C 10.851562 -26.535156 12.640625 -26.75 14.484375 -26.75 Z M 18.28125 -12.140625 L 15.515625 -12.046875 C 13.203125 -11.984375 11.597656 -11.566406 10.703125 -10.796875 C 9.804688 -10.035156 9.359375 -9.03125 9.359375 -7.78125 C 9.359375 -6.6875 9.675781 -5.910156 10.3125 -5.453125 C 10.957031 -4.992188 11.796875 -4.765625 12.828125 -4.765625 C 14.359375 -4.765625 15.648438 -5.21875 16.703125 -6.125 C 17.753906 -7.03125 18.28125 -8.316406 18.28125 -9.984375 Z M 18.28125 -12.140625 "/></g></g><g transform="translate(136.042968, 314.118859)"><g><path d="M 18.375 -26.703125 C 18.738281 -26.703125 19.15625 -26.679688 19.625 -26.640625 C 20.101562 -26.597656 20.492188 -26.546875 20.796875 -26.484375 L 20.25 -19.78125 C 20.019531 -19.863281 19.6875 -19.921875 19.25 -19.953125 C 18.820312 -19.992188 18.453125 -20.015625 18.140625 -20.015625 C 17.222656 -20.015625 16.328125 -19.894531 15.453125 -19.65625 C 14.585938 -19.425781 13.8125 -19.050781 13.125 -18.53125 C 12.4375 -18.007812 11.894531 -17.320312 11.5 -16.46875 C 11.101562 -15.613281 10.90625 -14.570312 10.90625 -13.34375 L 10.90625 0 L 3.75 0 L 3.75 -26.203125 L 9.171875 -26.203125 L 10.21875 -21.796875 L 10.578125 -21.796875 C 11.085938 -22.691406 11.726562 -23.507812 12.5 -24.25 C 13.28125 -24.988281 14.164062 -25.582031 15.15625 -26.03125 C 16.144531 -26.476562 17.21875 -26.703125 18.375 -26.703125 Z M 18.375 -26.703125 "/></g></g><g transform="translate(157.839841, 314.118859)"><g><path d="M 12.046875 0.46875 C 9.128906 0.46875 6.75 -0.675781 4.90625 -2.96875 C 3.070312 -5.257812 2.15625 -8.625 2.15625 -13.0625 C 2.15625 -17.539062 3.082031 -20.929688 4.9375 -23.234375 C 6.800781 -25.546875 9.234375 -26.703125 12.234375 -26.703125 C 13.484375 -26.703125 14.582031 -26.53125 15.53125 -26.1875 C 16.488281 -25.84375 17.316406 -25.378906 18.015625 -24.796875 C 18.710938 -24.222656 19.300781 -23.578125 19.78125 -22.859375 L 20.015625 -22.859375 C 19.921875 -23.359375 19.804688 -24.09375 19.671875 -25.0625 C 19.546875 -26.039062 19.484375 -27.046875 19.484375 -28.078125 L 19.484375 -36.46875 L 26.65625 -36.46875 L 26.65625 0 L 21.171875 0 L 19.78125 -3.40625 L 19.484375 -3.40625 C 19.023438 -2.6875 18.457031 -2.03125 17.78125 -1.4375 C 17.101562 -0.851562 16.296875 -0.390625 15.359375 -0.046875 C 14.421875 0.296875 13.316406 0.46875 12.046875 0.46875 Z M 14.5625 -5.234375 C 16.507812 -5.234375 17.882812 -5.8125 18.6875 -6.96875 C 19.5 -8.132812 19.925781 -9.890625 19.96875 -12.234375 L 19.96875 -13.015625 C 19.96875 -15.554688 19.578125 -17.503906 18.796875 -18.859375 C 18.015625 -20.210938 16.5625 -20.890625 14.4375 -20.890625 C 12.863281 -20.890625 11.628906 -20.207031 10.734375 -18.84375 C 9.847656 -17.488281 9.40625 -15.53125 9.40625 -12.96875 C 9.40625 -10.40625 9.851562 -8.472656 10.75 -7.171875 C 11.644531 -5.878906 12.914062 -5.234375 14.5625 -5.234375 Z M 14.5625 -5.234375 "/></g></g><g transform="translate(188.21484, 314.118859)"><g/></g><g transform="translate(200.68359, 314.118859)"><g><path d="M 2.0625 -10.359375 L 18.09375 -16.953125 L 2.0625 -24.375 L 2.0625 -30 L 25.34375 -18.375 L 25.34375 -15.03125 L 2.0625 -4.765625 Z M 2.0625 -10.359375 "/></g></g></g><g fill="#ffffff" fill-opacity="1"><g transform="translate(39.911452, 311.573272)"><g><path d="M 25.34375 -4.765625 L 2.0625 -15.03125 L 2.0625 -18.375 L 25.34375 -30 L 25.34375 -24.375 L 9.3125 -16.953125 L 25.34375 -10.359375 Z M 25.34375 -4.765625 "/></g></g><g transform="translate(67.356763, 311.573272)"><g/></g><g transform="translate(79.825512, 311.573272)"><g><path d="M 14.390625 0.46875 C 11.796875 0.46875 9.582031 -0.00390625 7.75 -0.953125 C 5.925781 -1.898438 4.535156 -3.363281 3.578125 -5.34375 C 2.628906 -7.332031 2.15625 -9.875 2.15625 -12.96875 C 2.15625 -16.164062 2.695312 -18.773438 3.78125 -20.796875 C 4.875 -22.828125 6.382812 -24.316406 8.3125 -25.265625 C 10.238281 -26.222656 12.476562 -26.703125 15.03125 -26.703125 C 16.84375 -26.703125 18.40625 -26.523438 19.71875 -26.171875 C 21.039062 -25.816406 22.195312 -25.398438 23.1875 -24.921875 L 21.078125 -19.390625 C 19.953125 -19.835938 18.90625 -20.207031 17.9375 -20.5 C 16.96875 -20.789062 16 -20.9375 15.03125 -20.9375 C 13.78125 -20.9375 12.738281 -20.640625 11.90625 -20.046875 C 11.082031 -19.460938 10.46875 -18.582031 10.0625 -17.40625 C 9.65625 -16.238281 9.453125 -14.773438 9.453125 -13.015625 C 9.453125 -11.273438 9.671875 -9.832031 10.109375 -8.6875 C 10.546875 -7.550781 11.175781 -6.707031 12 -6.15625 C 12.832031 -5.601562 13.84375 -5.328125 15.03125 -5.328125 C 16.507812 -5.328125 17.828125 -5.523438 18.984375 -5.921875 C 20.140625 -6.316406 21.265625 -6.875 22.359375 -7.59375 L 22.359375 -1.484375 C 21.265625 -0.796875 20.117188 -0.300781 18.921875 0 C 17.734375 0.3125 16.222656 0.46875 14.390625 0.46875 Z M 14.390625 0.46875 "/></g></g><g transform="translate(104.505199, 311.573272)"><g><path d="M 14.484375 -26.75 C 18.003906 -26.75 20.703125 -25.984375 22.578125 -24.453125 C 24.453125 -22.921875 25.390625 -20.59375 25.390625 -17.46875 L 25.390625 0 L 20.390625 0 L 19.015625 -3.5625 L 18.828125 -3.5625 C 18.078125 -2.625 17.3125 -1.859375 16.53125 -1.265625 C 15.75 -0.671875 14.847656 -0.234375 13.828125 0.046875 C 12.816406 0.328125 11.582031 0.46875 10.125 0.46875 C 8.582031 0.46875 7.195312 0.171875 5.96875 -0.421875 C 4.738281 -1.015625 3.769531 -1.925781 3.0625 -3.15625 C 2.363281 -4.382812 2.015625 -5.941406 2.015625 -7.828125 C 2.015625 -10.609375 2.988281 -12.660156 4.9375 -13.984375 C 6.894531 -15.304688 9.828125 -16.035156 13.734375 -16.171875 L 18.28125 -16.3125 L 18.28125 -17.46875 C 18.28125 -18.84375 17.921875 -19.847656 17.203125 -20.484375 C 16.484375 -21.128906 15.484375 -21.453125 14.203125 -21.453125 C 12.941406 -21.453125 11.703125 -21.269531 10.484375 -20.90625 C 9.265625 -20.550781 8.046875 -20.097656 6.828125 -19.546875 L 4.453125 -24.375 C 5.847656 -25.113281 7.40625 -25.691406 9.125 -26.109375 C 10.851562 -26.535156 12.640625 -26.75 14.484375 -26.75 Z M 18.28125 -12.140625 L 15.515625 -12.046875 C 13.203125 -11.984375 11.597656 -11.566406 10.703125 -10.796875 C 9.804688 -10.035156 9.359375 -9.03125 9.359375 -7.78125 C 9.359375 -6.6875 9.675781 -5.910156 10.3125 -5.453125 C 10.957031 -4.992188 11.796875 -4.765625 12.828125 -4.765625 C 14.359375 -4.765625 15.648438 -5.21875 16.703125 -6.125 C 17.753906 -7.03125 18.28125 -8.316406 18.28125 -9.984375 Z M 18.28125 -12.140625 "/></g></g><g transform="translate(133.497385, 311.573272)"><g><path d="M 18.375 -26.703125 C 18.738281 -26.703125 19.15625 -26.679688 19.625 -26.640625 C 20.101562 -26.597656 20.492188 -26.546875 20.796875 -26.484375 L 20.25 -19.78125 C 20.019531 -19.863281 19.6875 -19.921875 19.25 -19.953125 C 18.820312 -19.992188 18.453125 -20.015625 18.140625 -20.015625 C 17.222656 -20.015625 16.328125 -19.894531 15.453125 -19.65625 C 14.585938 -19.425781 13.8125 -19.050781 13.125 -18.53125 C 12.4375 -18.007812 11.894531 -17.320312 11.5 -16.46875 C 11.101562 -15.613281 10.90625 -14.570312 10.90625 -13.34375 L 10.90625 0 L 3.75 0 L 3.75 -26.203125 L 9.171875 -26.203125 L 10.21875 -21.796875 L 10.578125 -21.796875 C 11.085938 -22.691406 11.726562 -23.507812 12.5 -24.25 C 13.28125 -24.988281 14.164062 -25.582031 15.15625 -26.03125 C 16.144531 -26.476562 17.21875 -26.703125 18.375 -26.703125 Z M 18.375 -26.703125 "/></g></g><g transform="translate(155.294259, 311.573272)"><g><path d="M 12.046875 0.46875 C 9.128906 0.46875 6.75 -0.675781 4.90625 -2.96875 C 3.070312 -5.257812 2.15625 -8.625 2.15625 -13.0625 C 2.15625 -17.539062 3.082031 -20.929688 4.9375 -23.234375 C 6.800781 -25.546875 9.234375 -26.703125 12.234375 -26.703125 C 13.484375 -26.703125 14.582031 -26.53125 15.53125 -26.1875 C 16.488281 -25.84375 17.316406 -25.378906 18.015625 -24.796875 C 18.710938 -24.222656 19.300781 -23.578125 19.78125 -22.859375 L 20.015625 -22.859375 C 19.921875 -23.359375 19.804688 -24.09375 19.671875 -25.0625 C 19.546875 -26.039062 19.484375 -27.046875 19.484375 -28.078125 L 19.484375 -36.46875 L 26.65625 -36.46875 L 26.65625 0 L 21.171875 0 L 19.78125 -3.40625 L 19.484375 -3.40625 C 19.023438 -2.6875 18.457031 -2.03125 17.78125 -1.4375 C 17.101562 -0.851562 16.296875 -0.390625 15.359375 -0.046875 C 14.421875 0.296875 13.316406 0.46875 12.046875 0.46875 Z M 14.5625 -5.234375 C 16.507812 -5.234375 17.882812 -5.8125 18.6875 -6.96875 C 19.5 -8.132812 19.925781 -9.890625 19.96875 -12.234375 L 19.96875 -13.015625 C 19.96875 -15.554688 19.578125 -17.503906 18.796875 -18.859375 C 18.015625 -20.210938 16.5625 -20.890625 14.4375 -20.890625 C 12.863281 -20.890625 11.628906 -20.207031 10.734375 -18.84375 C 9.847656 -17.488281 9.40625 -15.53125 9.40625 -12.96875 C 9.40625 -10.40625 9.851562 -8.472656 10.75 -7.171875 C 11.644531 -5.878906 12.914062 -5.234375 14.5625 -5.234375 Z M 14.5625 -5.234375 "/></g></g><g transform="translate(185.669257, 311.573272)"><g/></g><g transform="translate(198.138007, 311.573272)"><g><path d="M 2.0625 -10.359375 L 18.09375 -16.953125 L 2.0625 -24.375 L 2.0625 -30 L 25.34375 -18.375 L 25.34375 -15.03125 L 2.0625 -4.765625 Z M 2.0625 -10.359375 "/></g></g></g></svg>